<svg width="71" height="74" viewBox="0 0 71 74" fill="none" xmlns="http://www.w3.org/2000/svg">
<path d="M27.375 48.7368H32.235V39.4068H33.39L40.53 48.7368H46.695L38.595 38.8518C40.335 38.3718 41.69 37.4868 42.66 36.1968C43.64 34.9068 44.13 33.3318 44.13 31.4718C44.13 29.8918 43.785 28.5468 43.095 27.4368C42.415 26.3168 41.45 25.4618 40.2 24.8718C38.96 24.2818 37.495 23.9868 35.805 23.9868H27.375V48.7368ZM32.235 35.3568V27.8718H34.305C35.825 27.8718 36.995 28.1968 37.815 28.8468C38.635 29.4968 39.045 30.4168 39.045 31.6068C39.045 32.7968 38.63 33.7218 37.8 34.3818C36.98 35.0318 35.815 35.3568 34.305 35.3568H32.235Z" fill="#5FC7F3"/>
<path d="M7.3118 43.9837C3.65819 40.2182 3.6582 34.1131 7.3118 30.3476L28.7399 8.2632C32.3935 4.49769 38.3172 4.49769 41.9708 8.2632L63.3989 30.3476C67.0525 34.1131 67.0525 40.2182 63.3989 43.9837L41.9708 66.0681C38.3172 69.8336 32.3935 69.8336 28.7399 66.0681L7.3118 43.9837Z" stroke="#5FC7F3"/>
</svg>
