<svg width="71" height="74" viewBox="0 0 71 74" fill="none" xmlns="http://www.w3.org/2000/svg">
<path d="M27.375 48.7371V23.9871H35.805C37.495 23.9871 38.96 24.2871 40.2 24.8871C41.45 25.4771 42.415 26.3321 43.095 27.4521C43.785 28.5621 44.13 29.9021 44.13 31.4721C44.13 32.7121 43.91 33.8321 43.47 34.8321C43.03 35.8221 42.4 36.6571 41.58 37.3371C40.76 38.0171 39.765 38.5221 38.595 38.8521L46.695 48.7371H40.53L33.39 39.4071H32.235V48.7371H27.375ZM32.235 35.3571H34.305C35.315 35.3571 36.17 35.2121 36.87 34.9221C37.57 34.6321 38.105 34.2071 38.475 33.6471C38.855 33.0771 39.045 32.3971 39.045 31.6071C39.045 30.4071 38.63 29.4871 37.8 28.8471C36.98 28.1971 35.815 27.8721 34.305 27.8721H32.235V35.3571Z" fill="#041118"/>
<path d="M7.3118 30.3477L28.7399 8.26332C32.3935 4.49781 38.3172 4.49781 41.9708 8.26332L63.3989 30.3477C67.0525 34.1132 67.0525 40.2183 63.3989 43.9838L41.9708 66.0682C38.3172 69.8337 32.3935 69.8337 28.7399 66.0682L7.3118 43.9838C3.65819 40.2183 3.6582 34.1132 7.3118 30.3477Z" stroke="#041118"/>
</svg>
