<svg width="40" height="40" viewBox="30 0 40 40" fill="none" xmlns="http://www.w3.org/2000/svg">
<g filter="url(#filter0_d_1343_115)">
<rect x="30" width="40" height="40" rx="16" fill="white"/>
<g filter="url(#filter1_d_1343_115)">
<path d="M42.4853 24.5175C42.6215 24.3814 42.8063 24.3049 42.9989 24.3049H60.7692C61.0929 24.3049 61.2549 24.6963 61.0259 24.9252L57.5145 28.4337C57.3783 28.5699 57.1936 28.6464 57.001 28.6464H39.2307C38.907 28.6464 38.7449 28.2549 38.9739 28.0261L42.4853 24.5175Z" fill="url(#paint0_linear_1343_115)"/>
<path d="M42.4853 11.4096C42.6215 11.2735 42.8063 11.197 42.9989 11.197H60.7692C61.0929 11.197 61.2549 11.5885 61.0259 11.8173L57.5145 15.3259C57.3783 15.462 57.1936 15.5385 57.001 15.5385H39.2307C38.907 15.5385 38.7449 15.147 38.9739 14.9182L42.4853 11.4096Z" fill="url(#paint1_linear_1343_115)"/>
<path d="M57.5145 17.9218C57.3783 17.7857 57.1936 17.7092 57.001 17.7092H39.2307C38.907 17.7092 38.7449 18.1007 38.9739 18.3295L42.4853 21.8381C42.6215 21.9742 42.8063 22.0507 42.9989 22.0507H60.7692C61.0929 22.0507 61.2549 21.6592 61.0259 21.4304L57.5145 17.9218Z" fill="url(#paint2_linear_1343_115)"/>
</g>
</g>
<defs>
<filter id="filter0_d_1343_115" x="0" y="0" width="100" height="112" filterUnits="userSpaceOnUse" color-interpolation-filters="sRGB">
<feFlood flood-opacity="0" result="BackgroundImageFix"/>
<feColorMatrix in="SourceAlpha" type="matrix" values="0 0 0 0 0 0 0 0 0 0 0 0 0 0 0 0 0 0 127 0" result="hardAlpha"/>
<feOffset dy="40"/>
<feGaussianBlur stdDeviation="15"/>
<feColorMatrix type="matrix" values="0 0 0 0 0.0980392 0 0 0 0 0.0980392 0 0 0 0 0.180392 0 0 0 0.04 0"/>
<feBlend mode="multiply" in2="BackgroundImageFix" result="effect1_dropShadow_1343_115"/>
<feBlend mode="normal" in="SourceGraphic" in2="effect1_dropShadow_1343_115" result="shape"/>
</filter>
<filter id="filter1_d_1343_115" x="2" y="6" width="96" height="106" filterUnits="userSpaceOnUse" color-interpolation-filters="sRGB">
<feFlood flood-opacity="0" result="BackgroundImageFix"/>
<feColorMatrix in="SourceAlpha" type="matrix" values="0 0 0 0 0 0 0 0 0 0 0 0 0 0 0 0 0 0 127 0" result="hardAlpha"/>
<feOffset dy="40"/>
<feGaussianBlur stdDeviation="15"/>
<feColorMatrix type="matrix" values="0 0 0 0 0.0980392 0 0 0 0 0.0980392 0 0 0 0 0.180392 0 0 0 0.1 0"/>
<feBlend mode="multiply" in2="BackgroundImageFix" result="effect1_dropShadow_1343_115"/>
<feBlend mode="normal" in="SourceGraphic" in2="effect1_dropShadow_1343_115" result="shape"/>
</filter>
<linearGradient id="paint0_linear_1343_115" x1="53.9202" y1="6.41065" x2="41.6216" y2="29.9673" gradientUnits="userSpaceOnUse">
<stop stop-color="#00FFA3"/>
<stop offset="1" stop-color="#DC1FFF"/>
</linearGradient>
<linearGradient id="paint1_linear_1343_115" x1="53.9201" y1="6.41059" x2="41.6216" y2="29.9673" gradientUnits="userSpaceOnUse">
<stop stop-color="#00FFA3"/>
<stop offset="1" stop-color="#DC1FFF"/>
</linearGradient>
<linearGradient id="paint2_linear_1343_115" x1="53.9201" y1="6.41061" x2="41.6216" y2="29.9673" gradientUnits="userSpaceOnUse">
<stop stop-color="#00FFA3"/>
<stop offset="1" stop-color="#DC1FFF"/>
</linearGradient>
</defs>
</svg>
